<?xml version="1.0" ?><svg xmlns="http://www.w3.org/2000/svg" xmlns:xlink="http://www.w3.org/1999/xlink" version="1.1" viewBox="0 0 512 512" style="enable-background:new 0 0 512 512;" xml:space="preserve"><g id="_x31_3_Academic_x2C__Professions_and_Jobs_x2C__Studying_x2C__Study_x2C__Learning"><g><polygon style="fill:#FFFFFF;" points="291,293.01 221,293.92 202.68,353.64 256,412.045 309.32,353.64   "/><path style="fill:#9DCAFC;" d="M392.88,324.91c-15.85-11.735-15.809-36.152,0-47.82c6.166-4.553,9.131-12.154,7.82-19.56    C378.385,129.843,381.506,68.912,381,61l-0.09-0.29l-27.41-5.335L340,73.9l-49,219.11V326c0,12.42,7.55,23.08,18.32,27.64h0.01    c3.59,1.52,7.53,2.36,11.67,2.36l34.4,11.8l38.2-11.28C403.788,348.271,403.369,332.654,392.88,324.91z"/><path style="fill:#9DCAFC;" d="M170,73.26l-18.7-17.885l-20.21,5.335L131,61v1.82c0,100.369-20,189.2-20,198.18    c0,6.6,3.19,12.45,8.12,16.09c15.92,11.787,15.72,36.217,0,47.82c-10.507,7.758-10.891,23.374-0.72,31.61l43.4,14.08l40.88-16.96    C213.45,349.08,221,338.42,221,326v-32.08L170,73.26z"/><polygon style="fill:#FFFFFF;" points="170,73.26 170,141 264,160.723 340,141 340,73.9   "/><path style="fill:#9DCAFC;" d="M411,51c-0.633,0.204-3.118,1.01-155,50c-272.849-88.008,6.348,2.048-155-50l155-40L411,51z"/><path style="fill:#FFFFFF;" d="M340,141v75c0,61.341-63.125,102.342-119,77.92c-30.02-13.12-51-43.07-51-77.92v-75H340z"/><path style="fill:#FFFFFF;" d="M71,501v-90c0-30.366,24.619-55,55-55h25.3l61.3,54.2L256,461l9,18.8l-9,21.2    C246.613,501,80.719,501,71,501z"/><path style="fill:#FFFFFF;" d="M256,501v-40l45.4-58.4l60.57-46.6H386c30.376,0,55,24.619,55,55v90    C431.286,501,265.427,501,256,501z"/><path style="fill:#FFFFFF;" d="M361.97,356L256,461L151.3,356H191c4.14,0,8.09-0.84,11.68-2.36L256,401l53.32-47.36h0.01    c3.59,1.52,7.53,2.36,11.67,2.36H361.97z"/><g><path style="fill:#4269A7;" d="M409.491,350.411c3.863-11.771,0.245-25.481-10.669-33.547     c-10.419-7.701-10.419-24.026-0.001-31.727c9.044-6.685,13.703-18.046,11.729-29.33     c-19.376-110.844-19.281-166.774-19.422-187.89l22.941-7.4c4.234-1.366,7.058-5.367,6.925-9.814     c-0.132-4.448-3.188-8.273-7.496-9.385l-155-40c-1.639-0.423-3.359-0.423-4.998,0l-155,40c-4.309,1.112-7.365,4.937-7.497,9.385     c-0.132,4.448,2.69,8.448,6.926,9.814l23.053,7.436c-0.357,54.628-6.424,112.862-19.534,187.852     c-1.987,11.373,2.753,22.697,11.729,29.332c10.418,7.7,10.42,24.025,0,31.727c-10.934,8.081-14.527,21.787-10.667,33.547     C78.249,359.849,61,383.44,61,411v90c0,5.523,4.477,10,10,10h370c5.522,0,10-4.477,10-10v-90     C451,383.441,433.752,359.85,409.491,350.411z M391,261c0,3.208-1.482,6.143-4.066,8.053     c-21.223,15.687-21.213,48.213,0.001,63.894c4.323,3.196,5.177,8.937,2.665,13.157C386.885,345.955,392.122,346,321,346     c-11.028,0-20-8.972-20-20v-26.853c29.228-16.194,49-47.346,49-83.147V81.185l21.092-6.804C372.528,169.341,391,254.66,391,261z      M256.042,446.88L175.393,366c13.476-0.239,17.612,0.64,24.903-1.102l49.063,43.579c3.788,3.365,9.495,3.364,13.281,0     l49.064-43.579c7.314,1.748,11.321,0.854,25.966,1.102L256.042,446.88z M252.93,110.517c2.044,0.659,4.191,0.628,6.14,0     L330,87.636V131H180V86.991L252.93,110.517z M180,151h150v65c0,41.38-33.542,75-75,75c-41.355,0-75-33.645-75-75V151z M231,326     v-18.074c15.962,4.17,33.361,4.195,50-0.523V326c0,11.225,4.654,21.378,12.126,28.649L256,387.625l-37.126-32.976     C226.346,347.378,231,337.225,231,326z M256,21.328l119.117,30.74C369.954,53.733,261.085,88.852,256,90.493     c-12.055-3.889-104.616-33.747-119.118-38.425L256,21.328z M125.065,332.947c21.222-15.687,21.216-48.212,0-63.895     c-3.179-2.349-4.556-6.148-3.915-9.802c17.874-102.245,19.498-159.659,19.71-184.885L160,80.539V216     c0,36.515,20.711,68.278,51,84.175V326c0,11.028-8.972,20-20,20c-68.436,0.04-65-0.093-68.6,0.105     C119.886,341.881,120.745,336.141,125.065,332.947z M81,411c0-24.813,20.187-45,45-45h21.149L246,465.134V491H131v-40     c0-5.523-4.477-10-10-10s-10,4.477-10,10v40H81V411z M431,491h-30v-40c0-5.523-4.478-10-10-10s-10,4.477-10,10v40H266v-25.831     L366.085,366H386c24.813,0,45,20.187,45,45V491z"/><path style="fill:#4269A7;" d="M278,242.655c3.313-4.418,2.418-10.686-2-14c-4.419-3.313-10.687-2.418-14,2     c-3.503,4.671-10.498,4.669-14,0c-3.314-4.418-9.581-5.314-14-2c-4.418,3.314-5.314,9.582-2,14     C243.512,258.004,266.494,257.997,278,242.655z"/><path style="fill:#4269A7;" d="M220,201c5.523,0,10-4.477,10-10v-10c0-5.523-4.477-10-10-10s-10,4.477-10,10v10     C210,196.523,214.477,201,220,201z"/><path style="fill:#4269A7;" d="M290,201c5.522,0,10-4.477,10-10v-10c0-5.523-4.478-10-10-10s-10,4.477-10,10v10     C280,196.523,284.478,201,290,201z"/></g></g></g><g id="Layer_1"/></svg>