<?xml version="1.0" ?><svg xmlns="http://www.w3.org/2000/svg" xmlns:xlink="http://www.w3.org/1999/xlink" version="1.1" id="Layer_1" viewBox="0 0 100 100" style="enable-background:new 0 0 100 100;" xml:space="preserve"><style type="text/css">
	.st0{fill:#005EB8;}
	.st1{fill:#FDCDA5;}
	.st2{fill:#9AD9FC;}
	.st3{fill:#70BEF2;}
	.st4{fill:#E8AB7F;}
	.st5{fill:#B48764;}
	.st6{fill:#966D50;}
	.st7{fill:#0F89DB;}
	.st8{fill:#C39772;}
	.st9{fill:#0A70C4;}
	.st10{fill:#C3E7FC;}
	.st11{fill:#0A0080;}
	.st12{fill:#FFFFFF;}
	.st13{fill:#ED8B00;}
</style><g><g><path class="st0" d="M31.7,50v-2.1c0-3.9-3-7.4-7-7.6c-4-0.1-7.5,3-7.7,7c0,0.1,0,0.2,0,0.4V50c0,3.8-0.6,6-1,6.9    c-0.1,0.3,0,0.5,0.3,0.7c1.1,0.6,4.2,2.1,6.9,2.6h2.3c2.7-0.5,5.8-2,6.9-2.6c0.3-0.1,0.4-0.4,0.3-0.7C32.3,56.1,31.7,53.8,31.7,50    z"/><rect x="21.5" y="56.2" class="st1" width="5.7" height="7.3"/><path class="st2" d="M32.5,61.5l-3-1.3l-4,1.7l-0.6,1c-0.2,0.3-0.5,0.3-0.8,0.1c-0.1,0-0.1-0.1-0.1-0.1l-0.6-1l-4-1.7l-3,1.3    c-1.3,0.6-2,1.8-2,3.2l0.3,10.7h19.7l0.3-10.7C34.6,63.4,33.8,62.1,32.5,61.5z"/><path class="st3" d="M18,65.9l-2.8-3.5c-0.6,0.6-1,1.5-0.9,2.4l0.3,10.7H18V65.9z"/><path class="st3" d="M30.8,65.9l2.8-3.5c0.6,0.6,1,1.5,0.9,2.4l-0.3,10.7h-3.5V65.9z"/><path class="st4" d="M21.5,57.9c1.8,0.8,3.9,0.8,5.7,0v-1.6h-5.7V57.9z"/><path class="st1" d="M29.7,53.5c0.1-0.5,0.2-0.9,0.3-1.4c0.1-3.3-4.5-2.5-8.2-4.9c-0.3-0.2-0.6-0.1-0.8,0.1    c-0.5,0.7-1,1.3-1.6,1.9c-0.2,0.2-0.5,0.3-0.8,0.3h-0.5c-0.1,0-0.1,0-0.2,0c-0.5,0.1-0.9,0.6-0.9,1.2v0.4c0,0.5,0.4,1,0.9,1.2    c0.1,0,0.2,0,0.4,0c0.3,0,0.5,0.2,0.6,0.5c0.6,3,3.5,5.1,6.6,4.5c1.9-0.4,3.4-1.6,4.2-3.4C29.6,53.8,29.7,53.5,29.7,53.5z"/><path class="st3" d="M20.4,62.4l-1.1-2.2l1.3-1c0.3-0.2,0.6-0.2,0.8,0.1l0,0l1.9,2.6l-1.2,0.9c-0.5,0.4-1.2,0.3-1.6-0.2    C20.5,62.5,20.4,62.5,20.4,62.4z"/><path class="st3" d="M28.4,62.4l1.1-2.2l-1.3-1c-0.3-0.2-0.6-0.2-0.8,0.1l0,0l-1.9,2.6l1.2,0.9c0.5,0.4,1.2,0.3,1.6-0.2    C28.3,62.5,28.3,62.5,28.4,62.4z"/><rect x="46" y="54.9" class="st5" width="8" height="6.8"/><path class="st6" d="M46,57.1c2.4,1.7,5.6,1.7,8,0v-2.1h-8V57.1z"/><path class="st0" d="M61.6,75.5L62,64.2c0.1-1.5-0.8-2.8-2.2-3.3l-5.2-1.8c-0.2-0.1-0.5,0-0.6,0.2c-1.2,2.2-3.9,3.1-6.2,1.9    c-0.8-0.4-1.5-1.1-1.9-1.9c-0.1-0.2-0.4-0.3-0.6-0.2l-5.2,1.8c-1.4,0.5-2.3,1.9-2.2,3.3l0.5,11.2H61.6z"/><path class="st7" d="M43.2,66.9l-4.6-4.6c-0.4,0.6-0.5,1.3-0.5,1.9l0.5,11.2h4.7L43.2,66.9L43.2,66.9z"/><path class="st7" d="M56.9,66.9l4.6-4.6c0.4,0.6,0.5,1.3,0.5,1.9l-0.5,11.2h-4.7L56.9,66.9L56.9,66.9z"/><path class="st8" d="M56.3,49.2v-1.7c0-3.5-2.8-6.3-6.3-6.3s-6.3,2.8-6.3,6.3v1.7h0c-0.1,0-0.1,0-0.2,0c-0.6,0.1-1,0.6-0.9,1.2    v0.4c0,0.5,0.4,1,0.9,1.2c0.1,0,0.2,0,0.4,0c0.3,0,0.5,0.2,0.6,0.5c0.6,3.1,3.5,5.2,6.6,4.6c2.3-0.4,4.2-2.3,4.6-4.6    c0-0.3,0.3-0.5,0.5-0.5h0.1c0.6,0,1.1-0.5,1.1-1.1v-0.6C57.4,49.7,56.9,49.2,56.3,49.2z"/><path class="st7" d="M44.2,59.5c1.3,3.2,4.9,4.8,8.2,3.5c1.6-0.6,2.9-1.9,3.5-3.5l-1.3-0.4c-0.2-0.1-0.5,0-0.6,0.2    c-1.2,2.2-3.9,3.1-6.2,1.9c-0.8-0.4-1.5-1.1-1.9-1.9c-0.1-0.2-0.4-0.3-0.6-0.2L44.2,59.5z"/><path class="st9" d="M50,41.2c-3.5,0-6.3,2.8-6.3,6.3v1.7h0.8c0.3,0,0.4-0.1,0.5-0.4l0.7-1.8c0.2-0.4,0.6-0.7,1.1-0.7h6.4    c0.5,0,0.9,0.3,1.1,0.7l0.7,1.8c0.1,0.2,0.3,0.4,0.5,0.4h0.8v-1.7C56.3,44,53.5,41.2,50,41.2L50,41.2z"/><path class="st1" d="M83.9,62.8l-3.8-1.9c-0.8-0.4-1.3-1.2-1.3-2.1v-4.4h-7v4.4c0,0.9-0.5,1.7-1.3,2.1l-3.8,1.9    c-1.2,0.6-1.9,1.8-1.9,3.2v9.5h21.1v-9.5C85.8,64.6,85.1,63.4,83.9,62.8z"/><path class="st3" d="M83.9,62.8l-3.8-1.9c0,0-0.1-0.1-0.1-0.1c-2.6,2.4-6.7,2.4-9.3,0c0,0-0.1,0.1-0.1,0.1l-3.8,1.9    c-1.2,0.6-1.9,1.8-1.9,3.2v9.5h21.1v-9.5C85.8,64.6,85.1,63.4,83.9,62.8z"/><path class="st4" d="M71.8,58.4c2.3,0.9,4.8,0.9,7,0v-4h-7V58.4z"/><circle class="st0" cx="75.3" cy="42.3" r="3.2"/><path class="st1" d="M75.3,58.2L75.3,58.2c-3.5,0-6.3-2.8-6.3-6.3l0,0v-2.1c0-3.5,2.8-6.3,6.3-6.3l0,0c3.5,0,6.3,2.8,6.3,6.3l0,0    v2.1C81.6,55.3,78.8,58.2,75.3,58.2z"/><path class="st0" d="M75.3,43.4c-3.5,0-6.3,2.8-6.3,6.3l0,0v1.1c0,0,2.1,0,4.2-2.1c0,0,3.2,4.2,8.5,2.1v-1.1    C81.6,46.2,78.8,43.4,75.3,43.4z"/><rect x="14.2" y="75.5" class="st10" width="71.6" height="4.5"/><path class="st11" d="M81.6,75.7H68.9c-0.6,0-1.1-0.5-1.1-1.1l-0.4-7.4c0-0.6,0.4-1.2,1.1-1.2c0,0,0,0,0.1,0H82    c0.6,0,1.1,0.5,1.1,1.1c0,0,0,0,0,0.1l-0.4,7.4C82.7,75.2,82.2,75.7,81.6,75.7z"/><circle class="st12" cx="75.3" cy="71.1" r="1.4"/><path class="st11" d="M56.4,75.7H43.7c-0.6,0-1.1-0.5-1.1-1.1l-0.4-7.4c0-0.6,0.4-1.2,1.1-1.2c0,0,0,0,0.1,0h13.5    c0.6,0,1.1,0.5,1.1,1.1c0,0,0,0,0,0.1l-0.4,7.4C57.5,75.2,57,75.7,56.4,75.7z"/><circle class="st12" cx="50" cy="71.1" r="1.4"/><path class="st11" d="M30.7,75.7H18.1c-0.6,0-1.1-0.5-1.1-1.1l-0.4-7.4c0-0.6,0.4-1.2,1.1-1.2c0,0,0,0,0.1,0h13.6    c0.6,0,1.1,0.5,1.1,1.1c0,0,0,0,0,0.1l-0.4,7.4C31.8,75.2,31.3,75.7,30.7,75.7z"/><circle class="st12" cx="24.4" cy="71.1" r="1.4"/></g><polygon class="st13" points="36.8,20.1 38.8,23.4 42.6,24.3 40,27.2 40.4,31.1 36.8,29.6 33.2,31.1 33.6,27.2 31,24.3 34.8,23.4     "/><polygon class="st13" points="23.5,20.1 25.5,23.4 29.3,24.3 26.8,27.2 27.1,31.1 23.5,29.6 20,31.1 20.3,27.2 17.7,24.3    21.6,23.4  "/><polygon class="st13" points="50.1,20.1 52.1,23.4 55.9,24.3 53.3,27.2 53.7,31.1 50.1,29.6 46.5,31.1 46.9,27.2 44.3,24.3    48.1,23.4  "/><polygon class="st13" points="63.4,20.1 65.4,23.4 69.2,24.3 66.6,27.2 67,31.1 63.4,29.6 59.8,31.1 60.2,27.2 57.6,24.3    61.4,23.4  "/><polygon class="st13" points="76.7,20.1 78.6,23.4 82.5,24.3 79.9,27.2 80.3,31.1 76.7,29.6 73.1,31.1 73.5,27.2 70.8,24.3    74.7,23.4  "/></g></svg>